<svg width="32" height="24" viewBox="0 0 32 24" fill="none" xmlns="http://www.w3.org/2000/svg">
<path d="M32 0L31.0093 2.66667H28.4373L23.8053 18.6667H6.15333L0 4H22.416L21.664 6.66667H4.01067L7.92667 16H21.8307L26.4067 0H32ZM11.3333 20C10.2293 20 9.33333 20.896 9.33333 22C9.33333 23.1053 10.2293 24 11.3333 24C12.4373 24 13.3333 23.1053 13.3333 22C13.3333 20.896 12.4373 20 11.3333 20ZM18 20C16.896 20 16 20.8947 16 22C16 23.1053 16.896 24 18 24C19.104 24 20 23.1053 20 22C20 20.896 19.104 20 18 20Z" fill="white"/>
</svg>
